<svg xmlns="http://www.w3.org/2000/svg" viewBox="0 0 48 48"><path fill="#ffc107" d="M9,25.684V13H7v12.684c-1.163,0.413-2,1.512-2,2.816c0,1.656,3,6,3,6s3-4.344,3-6C11,27.196,10.163,26.097,9,25.684z"/><path fill="#ff9800" d="M25,37c-5,0-5-4-5-4v-6h10v6C30,33,30,37,25,37z"/><path fill="#455a64" d="M7,13L25,2l18,11L25,23L7,13z M30,33L30,33c0,0-1,4-5,4s-5-4-5-4S9,34.986,9,46h32C41,35.025,30,33,30,33"/><path fill="#ffa726" d="M36,21c0,1.105-0.896,2-2,2c-1.106,0-2-0.895-2-2s0.894-2,2-2C35.104,19,36,19.895,36,21 M18,21c0-1.105-0.896-2-2-2c-1.106,0-2,0.895-2,2s0.894,2,2,2C17.104,23,18,22.105,18,21"/><path fill="#ffb74d" d="M34,15c0-6-18-4.971-18,0v7c0,4.971,4.028,9,9,9c4.971,0,9-4.029,9-9V15z"/><path fill="#784719" d="M28,21c0-0.551,0.448-1,1-1s1,0.449,1,1s-0.448,1-1,1S28,21.551,28,21 M20,21c0,0.551,0.448,1,1,1s1-0.449,1-1s-0.448-1-1-1S20,20.449,20,21"/><path fill="#424242" d="M15 17v2.286L17 21v-5h-1.96C15.017 16.33 15 16.662 15 17zM33 16v5l2-1.742V17c0-.334-.011-.669-.026-1H33z"/><path fill="#62808c" d="M35,18c0,0-5-1-10-1s-10,1-10,1c0-4,1-6,1-6s2.376-2,9.25-2c6.875,0,8.75,2,8.75,2S35,14,35,18z"/></svg>